<?xml version="1.0" standalone="no"?>
<!DOCTYPE svg PUBLIC "-//W3C//DTD SVG 1.0//EN" "http://www.w3.org/TR/2001/REC-SVG-20010904/DTD/svg10.dtd">
<svg xmlns="http://www.w3.org/2000/svg" xmlns:xlink="http://www.w3.org/1999/xlink" id="body_1" width="100" height="57">

<g transform="matrix(0.24863794 0 0 0.24863794 0.2724106 -0)">
	<g>
        <path d="M247.749 12.017L232.257 20.842L245.377 28.398C 252.594 32.553 273.364 44.583 291.533 55.131C 309.702 65.678 324.891 74.308 325.286 74.308C 326.611 74.308 356.005 56.663 355.469 56.189C 354.623 55.442 264.043 3.16 263.622 3.177C 263.412 3.185 256.27 7.163 247.749 12.017M190.546 45.138C 180.998 50.641 173.001 55.721 172.775 56.426C 172.549 57.131 182.495 63.514 194.878 70.611C 207.26 77.708 227.759 89.512 240.432 96.842L240.432 96.842L263.472 110.17L280.716 100.24C 300.917 88.608 300.867 88.68 292.124 83.82C 288.412 81.757 270.791 71.598 252.964 61.246C 235.138 50.893 217.708 40.782 214.229 38.777L214.229 38.777L207.905 35.132L190.546 45.138zM76.68 58.498C 74.936 61.32 77.536 63.241 83.097 63.241C 87.484 63.241 88.538 62.628 88.538 60.079C 88.538 56.627 78.651 55.309 76.68 58.498M94.071 58.498C 92.148 61.609 95.172 63.241 102.86 63.241C 109.618 63.241 110.672 62.814 110.672 60.079C 110.672 56.596 96.104 55.208 94.071 58.498M116.17 58.555C 114.247 61.667 117.89 63.462 125.082 62.947C 129.971 62.597 132.016 61.751 132.016 60.079C 132.016 57.134 117.888 55.775 116.17 58.555M137.549 60.079C 137.549 63.1 138.315 63.362 145.85 62.928C 151.962 62.577 154.15 61.825 154.15 60.079C 154.15 58.333 151.962 57.582 145.85 57.23C 138.315 56.796 137.549 57.058 137.549 60.079M167.589 116.706L167.589 170.358L182.213 178.735C 190.257 183.343 210.356 194.914 226.877 204.449C 243.399 213.984 257.451 222.083 258.103 222.448C 258.755 222.813 259.289 199.016 259.289 169.566L259.289 169.566L259.289 116.021L239.13 104.353C 228.043 97.936 207.945 86.327 194.466 78.556C 180.988 70.785 169.427 64.118 168.775 63.741C 168.123 63.363 167.589 87.198 167.589 116.706M312.656 89.851L267.21 116.206L267.202 169.606L267.194 223.006L271.748 220.651C 274.252 219.356 291.505 209.499 310.087 198.747C 328.67 187.995 347.608 177.119 352.172 174.579L352.172 174.579L360.471 169.96L360.473 116.601C 360.474 87.253 359.941 63.299 359.289 63.369C 358.636 63.44 337.652 75.357 312.656 89.851M29.585 111.653C 26.015 115.224 28.754 117.144 36.759 116.683C 42.871 116.332 45.059 115.58 45.059 113.834C 45.059 111.312 31.796 109.443 29.585 111.653M51.72 111.653C 48.149 115.224 50.888 117.144 58.893 116.683C 65.005 116.332 67.194 115.58 67.194 113.834C 67.194 111.312 53.93 109.443 51.72 111.653M72.215 112.889C 70.929 116.239 72.53 116.996 80.896 116.996C 87.484 116.996 88.538 116.56 88.538 113.834C 88.538 109.882 73.698 109.023 72.215 112.889M94.121 112.172C 92.142 115.375 95.117 116.996 102.976 116.996C 109.672 116.996 110.822 116.566 110.378 114.229C 109.773 111.043 95.904 109.288 94.121 112.172M116.542 111.653C 113.085 115.11 115.797 116.996 124.227 116.996C 131.765 116.996 132.962 116.596 132.513 114.229C 131.966 111.352 118.944 109.251 116.542 111.653M138.676 111.653C 135.106 115.224 137.845 117.144 145.85 116.683C 151.962 116.332 154.15 115.58 154.15 113.834C 154.15 111.312 140.887 109.443 138.676 111.653M73.021 171.937C 73.871 176.416 88.538 176.872 88.538 172.419C 88.538 169.568 87.555 169.17 80.516 169.17C 73.731 169.17 72.576 169.596 73.021 171.937M93.986 170.889C 92.111 173.922 95.822 175.711 102.934 175.2C 108.025 174.835 109.993 173.972 110.379 171.937C 110.991 168.713 95.926 167.75 93.986 170.889M115.716 171.937C 116.138 174.129 117.88 174.704 124.111 174.704C 130.341 174.704 132.083 174.129 132.505 171.937C 132.962 169.565 131.762 169.17 124.111 169.17C 116.459 169.17 115.259 169.565 115.716 171.937M137.834 171.85C 138.57 175.673 154.15 176.134 154.15 172.332C 154.15 170.581 151.945 169.834 145.717 169.478C 138.302 169.054 137.35 169.34 137.834 171.85" stroke="none" fill="#FFFFFF" fill-rule="nonzero" />
	</g>
</g>
</svg>